# xmcd CD database file
#
# Track frame offsets:
#	183
#	11023
#	26705
#	41115
#	56648
#	67225
#	85913
#	101350
#	117040
#	135740
#	150148
#	167858
#	187918
#	207010
#
# Disc length: 2981 seconds
#
# Revision: 0
# Processed by: cddbd v1.5PL3 Copyright (c) Steve Scherf et al.
# Submitted via: CDex 1.51
#
DISCID=b40ba30e
DTITLE=Andre Previn, Red Mitchell, Shelly Manne, Leroy Vinnegar, Frank Capp - Andre Previn and his pals
DYEAR=1958
DGENRE=Jazz
TTITLE0=Ascot Gavotte (Lerner-Loewe)
TTITLE1=Collard Greens and Black Eyed Peas (B.Powell)
TTITLE2=But Not For Me (G.I.Gershwin)
TTITLE3=Start Fell on Alabama (Perkins-Parrish)
TTITLE4=Zip (Rodgers-Hart)
TTITLE5=Aint't Misbehavin'(Waller-Razaf-Brooks)
TTITLE6=Stealin'Apples (Waller-Razaf)
TTITLE7=I've Got a Felling I'm Falling (Waller-Link-Rose)
TTITLE8=Squeeze Me (Waller-Razaf)
TTITLE9=Honeysuckle Rose (Waller-Razaf)
TTITLE10=Oh, You Sweet Thing (Waller-Razaf)
TTITLE11=That's Where the South Begins (Waller-Razaf)
TTITLE12=Fatstuff (A.Previn)
TTITLE13=Black and Blue (Waller-Razaf)
EXTD=YEAR: 1958
EXTT0=
EXTT1=
EXTT2=
EXTT3=
EXTT4=
EXTT5=
EXTT6=
EXTT7=
EXTT8=
EXTT9=
EXTT10=
EXTT11=
EXTT12=
EXTT13=
PLAYORDER=
